Coordinates
version=1
nRows=16
nColumns=36
inDegrees=yes

Units are S.I. units (second, meters, Newtons, ...)
If the header above contains a line with 'inDegrees', this indicates whether rotational values are in degrees (yes) or radians (no).

endheader
time	pelvis_tilt	pelvis_list	pelvis_rotation	pelvis_tx	pelvis_ty	pelvis_tz	hip_flexion_r	hip_adduction_r	hip_rotation_r	knee_angle_r	knee_angle_r_beta	ankle_angle_r	subtalar_angle_r	mtp_angle_r	hip_flexion_l	hip_adduction_l	hip_rotation_l	knee_angle_l	knee_angle_l_beta	ankle_angle_l	subtalar_angle_l	mtp_angle_l	lumbar_extension	lumbar_bending	lumbar_rotation	arm_flex_r	arm_add_r	arm_rot_r	elbow_flex_r	pro_sup_r	arm_flex_l	arm_add_l	arm_rot_l	elbow_flex_l	pro_sup_l
      2.32083330	     -6.94642773	     -0.13471137	     -1.76747100	      0.45394457	      1.01592841	     -0.06240694	      7.09662748	     -4.42467020	    -19.22385963	      4.15701391	      0.07255358	    -37.72409947	      7.76453147	     -7.49999987	      9.65424404	     -6.48135040	     -4.21796864	      8.59727631	      0.15005078	    -34.67296655	      6.10047638	     -7.49999987	     -2.55742486	      0.64470543	     -2.02313025	     15.65460074	    -48.64590331	     22.75848829	    102.70427661	     79.56689205	      3.46617619	    -49.70828512	     21.26018146	    117.15855347	     78.25495023
      2.32500000	     -7.21937920	     -0.17156172	     -1.86847758	      0.45513003	      1.02189387	     -0.06280866	      6.69376761	     -4.05983910	    -18.74137021	      1.69727524	      0.02962304	    -41.64364306	      7.96538909	     -7.49999987	      9.25422318	     -6.47663558	     -3.45694636	      6.43946693	      0.11238990	    -37.92647522	      6.62886621	     -7.49999987	     -2.01787032	      0.56880411	     -2.02314981	     14.54258264	    -48.47981011	     22.73501440	    102.88815381	     79.85983911	      2.57423895	    -49.45350551	     21.39224750	    116.50751716	     78.67766957
      2.32916670	     -7.67252389	     -0.12054630	     -1.99535157	      0.45738588	      1.03351287	     -0.06326127	      6.97511274	     -4.06209661	    -18.50750245	      0.51763493	      0.00903443	    -44.77167137	      8.27900755	     -7.49999987	      9.22891478	     -6.41989533	     -2.95648436	      4.45514143	      0.07775689	    -41.46719587	      6.42407151	     -7.49999987	     -1.35379211	      0.42665109	     -1.65671579	     12.68767777	    -48.24359899	     21.94873567	    103.24690077	     79.58001703	      2.28985917	    -49.04269234	     22.05977577	    115.72623347	     78.91982236
      2.33333330	     -8.04066852	     -0.08545547	     -2.33891061	      0.45505954	      1.04004308	     -0.06308281	      7.81452025	     -4.04698288	    -18.05782594	      0.26900846	      0.00469508	    -46.23279980	      8.73500881	     -7.49999987	      9.36993336	     -6.42248798	     -3.03699514	      2.96441386	      0.05173878	    -44.21888220	      6.24090659	     -7.49999987	     -0.86838833	      0.25731539	      0.04513465	      8.86818030	    -48.33522207	     18.74089383	    103.86454225	     82.21465759	      4.82648230	    -48.42073248	     25.28004851	    113.80554568	     82.59033730
      2.33750000	     -8.29981809	      0.07690331	     -2.73510132	      0.45674535	      1.05562973	     -0.06561450	      8.33727633	     -4.22990314	    -17.53899169	      0.18872863	      0.00329394	    -47.08547562	      9.46464719	     -7.49999987	      9.39042684	     -6.10799766	     -2.21495451	      1.84544862	      0.03220915	    -46.14428628	      6.56972691	     -7.49999987	     -0.37591425	      0.18528055	      0.57939772	      7.83265931	    -48.06625538	     18.72181323	    103.22539437	     80.49141615	      4.57010101	    -47.51892510	     26.26807984	    112.35258735	     80.41331981
      2.34166670	     -8.38961451	      0.24388830	     -2.98097685	      0.45608489	      1.05916474	     -0.06344853	      8.66388018	     -4.22696106	    -16.67596947	      0.15546856	      0.00271344	    -47.44742358	     10.01392442	     -7.49999987	      9.40049470	     -5.86228372	     -2.24869205	      1.27957861	      0.02233286	    -46.98874927	      6.50542102	     -7.49999987	     -0.12468245	      0.05778441	      0.94098378	      7.26657605	    -47.83383563	     19.07697181	    102.49160223	     79.47660383	      4.07130108	    -46.85450635	     26.93747280	    111.26276352	     79.35283655
      2.34583330	     -8.38066388	      0.43125044	     -3.01259892	      0.45801799	      1.06561822	     -0.06104778	      8.54815331	     -4.12533507	    -16.96552203	      0.14378860	      0.00250958	    -47.04870075	      9.67853815	     -7.49999987	      9.19498768	     -5.58635248	     -2.42880827	      0.94135497	      0.01642974	    -47.39573000	      5.92230512	     -7.49999987	      0.15087914	     -0.24442042	      1.88812922	      4.64187814	    -47.25317787	     16.95501427	    102.08647868	     82.59277618	      5.28338950	    -46.13131534	     29.09998889	    109.41230085	     81.80665669
      2.35000000	     -8.33422638	      0.44416898	     -3.08910011	      0.45646384	      1.07580206	     -0.06048954	      8.46222138	     -3.80998523	    -17.30149289	      0.14166596	      0.00247254	    -46.63861183	      8.92698214	     -7.49999987	      9.13775432	     -5.37656060	     -2.80474781	      0.84100624	      0.01467833	    -47.61730696	      4.95589844	     -7.49999987	      0.15262325	     -0.30715584	      1.93796939	      3.89191218	    -46.70458809	     17.13747771	    101.49448506	     82.17036832	      4.35612152	    -45.51157752	     29.49553068	    108.54732767	     81.39002038
      2.35416670	     -8.12349205	      0.66910069	     -3.14624461	      0.45911976	      1.08517362	     -0.06023486	      8.06664734	     -3.82840171	    -18.18922634	      0.14221563	      0.00248213	    -46.12690995	      8.73125728	     -7.49999987	      8.65980761	     -4.88908059	     -4.19774440	      0.67808343	      0.01183479	    -47.45367129	      4.68739643	     -7.49999987	      0.14033383	     -0.61621304	      2.05277699	      2.88293710	    -45.65346323	     16.62802034	    100.65398972	     82.07400019	      3.27044195	    -44.59436679	     29.18616316	    107.35669014	     81.19775491
      2.35833330	     -7.97670885	      0.68425749	     -3.14056591	      0.45883993	      1.08803494	     -0.05853866	      7.73165166	     -3.57760721	    -18.93827252	      0.15195199	      0.00265206	    -46.20414393	      8.18430389	     -7.49999987	      8.36340521	     -4.64926232	     -5.21528798	      0.64175434	      0.01120073	    -47.49754035	      4.26567667	     -7.49999987	      0.01227103	     -0.75996036	      2.05561340	      1.55875317	    -44.69910727	     15.69044466	    100.38761558	     81.65480686	      1.94605071	    -43.79136159	     28.63900450	    106.85277383	     80.49092903
      2.36250000	     -7.73889897	      0.71376828	     -3.37329476	      0.46021257	      1.09426909	     -0.05928127	      7.28714609	     -3.39191281	    -19.27173645	      0.16292017	      0.00284349	    -46.90682434	      7.79586505	     -7.49999987	      7.88218509	     -4.44812959	     -4.97622774	      0.72685017	      0.01268593	    -47.13031116	      4.56876305	     -7.49999987	     -0.14771701	     -0.87369466	      1.96412755	      0.86321321	    -43.76427563	     15.30823289	     99.86874192	     82.88658821	      0.29493245	    -42.90763545	     27.71745065	    106.28184243	     81.07344697
      2.36666670	     -7.54379620	      0.81039247	     -3.44237456	      0.46190369	      1.10587584	     -0.05974180	      6.89840125	     -3.34038534	    -19.23140004	      0.17779911	      0.00310318	    -48.01892701	      7.88930495	     -7.49999987	      7.46164932	     -4.15889473	     -4.59657574	      0.92648736	      0.01617025	    -47.04767540	      5.34530280	     -7.49999987	     -0.20200036	     -1.02916400	      1.83203338	      0.24374471	    -42.77056493	     15.20758911	     99.30722656	     82.33944848	     -0.64381249	    -42.20659352	     27.75063894	    105.51962052	     80.57067138
      2.37083330	     -7.16363272	      0.65226726	     -3.39549570	      0.46240534	      1.10844139	     -0.05977677	      6.25002267	     -3.00389443	    -18.98861719	      0.21206077	      0.00370116	    -48.84570749	      8.32142711	     -7.49999987	      6.95111084	     -4.09601051	     -4.38945787	      1.17329764	      0.02047791	    -47.45107943	      6.00841242	     -7.49999987	     -0.61809874	     -0.91143571	      1.45674136	     -0.61640674	    -41.62937229	     14.44907309	     98.85975148	     81.94254253	     -2.25629309	    -41.13510164	     26.46807839	    104.94778848	     80.03653187
      2.37500000	     -6.79067878	      0.55096094	     -3.29110857	      0.46214946	      1.11540043	     -0.05968365	      5.57947296	     -2.69660290	    -18.56949268	      0.27976441	      0.00488281	    -49.34179074	      8.84880386	     -7.49999987	      6.58913990	     -3.99183110	     -3.79170128	      1.61061123	      0.02811047	    -48.10228550	      6.73417267	     -7.49999987	     -0.82375096	     -0.80312880	      1.10871927	     -1.20336661	    -40.74956769	     14.15718473	     97.98617433	     81.26914232	     -3.07886061	    -40.23123424	     26.24446470	    103.95724366	     79.40387731
      2.37916670	     -6.47474564	      0.42270723	     -3.05561283	      0.46288904	      1.12654096	     -0.05844741	      4.97032628	     -2.29766075	    -17.57231443	      0.40306418	      0.00703480	    -49.59041847	      9.82426822	     -7.49999987	      6.39111150	     -3.96644947	     -3.15523207	      2.14826690	      0.03749433	    -48.74149477	      7.83653541	     -7.49999987	     -1.31616751	     -0.74859790	      0.03678264	     -1.29352807	    -39.44134220	     13.86671458	     96.85305609	     84.22925722	     -5.37378023	    -39.03682139	     23.91245162	    103.46032567	     81.71665448
      2.38333330	     -6.18328428	      0.28641337	     -2.74502240	      0.46504644	      1.13395613	     -0.06003797	      4.43475580	     -2.09291119	    -15.91193856	      0.64039138	      0.01117694	    -49.69129260	     10.79478771	     -7.49999987	      6.19526682	     -3.96960877	     -2.23842710	      2.88342866	      0.05032532	    -49.02932871	      9.20925532	     -7.49999987	     -1.58661921	     -0.59930668	     -0.36424550	     -1.84592662	    -38.47052988	     13.70652374	     95.77734889	     83.12115294	     -6.00809788	    -38.09814771	     23.98863014	    102.54251583	     80.79909871
